<?xml version="1.0" encoding="UTF-8" ?>
<svg version="1.1" width="160" height="160" xmlns="http://www.w3.org/2000/svg" shape-rendering="crispEdges">
<rect x="65" y="0" width="20" height="5" fill="#242424" />
<rect x="55" y="5" width="15" height="5" fill="#242424" />
<rect x="70" y="5" width="10" height="40" fill="#000000" />
<rect x="80" y="5" width="15" height="5" fill="#242424" />
<rect x="50" y="10" width="10" height="5" fill="#242424" />
<rect x="60" y="10" width="10" height="15" fill="#000000" />
<rect x="80" y="10" width="15" height="15" fill="#000000" />
<rect x="95" y="10" width="5" height="10" fill="#242424" />
<rect x="50" y="15" width="5" height="5" fill="#242424" />
<rect x="55" y="15" width="5" height="15" fill="#000000" />
<rect x="50" y="20" width="5" height="55" fill="#000000" />
<rect x="95" y="20" width="5" height="60" fill="#000000" />
<rect x="45" y="25" width="5" height="35" fill="#242424" />
<rect x="60" y="25" width="5" height="5" fill="#FFFFFF" />
<rect x="65" y="25" width="5" height="5" fill="#000000" />
<rect x="80" y="25" width="5" height="5" fill="#000000" />
<rect x="85" y="25" width="5" height="5" fill="#FFFFFF" />
<rect x="90" y="25" width="5" height="5" fill="#000000" />
<rect x="100" y="25" width="5" height="75" fill="#000000" />
<rect x="55" y="30" width="6" height="1" fill="#FFFFFF" />
<rect x="61" y="30" width="3" height="9" fill="#000000" />
<rect x="64" y="30" width="6" height="1" fill="#FFFFFF" />
<rect x="80" y="30" width="6" height="1" fill="#FFFFFF" />
<rect x="86" y="30" width="3" height="9" fill="#000000" />
<rect x="89" y="30" width="6" height="1" fill="#FFFFFF" />
<rect x="55" y="31" width="5" height="9" fill="#FFFFFF" />
<rect x="60" y="31" width="1" height="8" fill="#000000" />
<rect x="64" y="31" width="1" height="8" fill="#000000" />
<rect x="65" y="31" width="5" height="9" fill="#FFFFFF" />
<rect x="80" y="31" width="5" height="9" fill="#FFFFFF" />
<rect x="85" y="31" width="1" height="8" fill="#000000" />
<rect x="89" y="31" width="1" height="8" fill="#000000" />
<rect x="90" y="31" width="5" height="9" fill="#FFFFFF" />
<rect x="60" y="39" width="5" height="1" fill="#FFFFFF" />
<rect x="85" y="39" width="5" height="1" fill="#FFFFFF" />
<rect x="55" y="40" width="15" height="5" fill="#000000" />
<rect x="80" y="40" width="15" height="5" fill="#000000" />
<rect x="55" y="45" width="10" height="5" fill="#000000" />
<rect x="65" y="45" width="20" height="10" fill="#FB9E36" />
<rect x="85" y="45" width="10" height="5" fill="#000000" />
<rect x="55" y="50" width="10" height="5" fill="#FB9E36" />
<rect x="85" y="50" width="10" height="5" fill="#FB9E36" />
<rect x="55" y="55" width="5" height="60" fill="#FFFFFF" />
<rect x="60" y="55" width="5" height="5" fill="#FB9E36" />
<rect x="65" y="55" width="20" height="5" fill="#000000" />
<rect x="85" y="55" width="5" height="5" fill="#FB9E36" />
<rect x="90" y="55" width="5" height="15" fill="#000000" />
<rect x="40" y="60" width="5" height="15" fill="#242424" />
<rect x="45" y="60" width="5" height="20" fill="#000000" />
<rect x="60" y="60" width="5" height="65" fill="#FFFFFF" />
<rect x="65" y="60" width="20" height="5" fill="#FB9E36" />
<rect x="85" y="60" width="5" height="35" fill="#F0F0F0" />
<rect x="105" y="60" width="5" height="55" fill="#000000" />
<rect x="65" y="65" width="10" height="75" fill="#FFFFFF" />
<rect x="75" y="65" width="10" height="15" fill="#F0F0F0" />
<rect x="90" y="70" width="5" height="55" fill="#F0F0F0" />
<rect x="35" y="75" width="5" height="10" fill="#242424" />
<rect x="40" y="75" width="5" height="20" fill="#000000" />
<rect x="50" y="75" width="5" height="35" fill="#FFFFFF" />
<rect x="110" y="75" width="5" height="35" fill="#000000" />
<rect x="45" y="80" width="5" height="25" fill="#FFFFFF" />
<rect x="75" y="80" width="5" height="60" fill="#FFFFFF" />
<rect x="80" y="80" width="5" height="5" fill="#F0F0F0" />
<rect x="95" y="80" width="5" height="45" fill="#F0F0F0" />
<rect x="30" y="85" width="5" height="15" fill="#242424" />
<rect x="35" y="85" width="5" height="25" fill="#000000" />
<rect x="80" y="85" width="5" height="40" fill="#FFFFFF" />
<rect x="115" y="85" width="5" height="25" fill="#000000" />
<rect x="40" y="95" width="5" height="5" fill="#FFFFFF" />
<rect x="85" y="95" width="5" height="25" fill="#FFFFFF" />
<rect x="25" y="100" width="5" height="10" fill="#2C2C2C" />
<rect x="30" y="100" width="5" height="10" fill="#000000" />
<rect x="40" y="100" width="5" height="5" fill="#242424" />
<rect x="100" y="100" width="5" height="20" fill="#F0F0F0" />
<rect x="120" y="100" width="5" height="10" fill="#000000" />
<rect x="40" y="105" width="10" height="10" fill="#000000" />
<rect x="20" y="110" width="20" height="5" fill="#EE932E" />
<rect x="50" y="110" width="5" height="30" fill="#000000" />
<rect x="110" y="110" width="15" height="5" fill="#EE932E" />
<rect x="125" y="110" width="5" height="5" fill="#FB8936" />
<rect x="20" y="115" width="5" height="5" fill="#EE932E" />
<rect x="25" y="115" width="20" height="30" fill="#FB9E36" />
<rect x="45" y="115" width="5" height="5" fill="#000000" />
<rect x="55" y="115" width="5" height="35" fill="#000000" />
<rect x="105" y="115" width="5" height="5" fill="#EE932E" />
<rect x="110" y="115" width="15" height="30" fill="#FB9E36" />
<rect x="125" y="115" width="5" height="5" fill="#EE932E" />
<rect x="15" y="120" width="5" height="10" fill="#EE932E" />
<rect x="20" y="120" width="5" height="25" fill="#FB9E36" />
<rect x="45" y="120" width="5" height="35" fill="#FB9E36" />
<rect x="85" y="120" width="5" height="10" fill="#F0F0F0" />
<rect x="100" y="120" width="10" height="35" fill="#FB9E36" />
<rect x="125" y="120" width="5" height="25" fill="#FB9E36" />
<rect x="130" y="120" width="5" height="10" fill="#EE932E" />
<rect x="60" y="125" width="5" height="30" fill="#000000" />
<rect x="80" y="125" width="5" height="15" fill="#F0F0F0" />
<rect x="90" y="125" width="10" height="15" fill="#000000" />
<rect x="10" y="130" width="5" height="10" fill="#EE932E" />
<rect x="15" y="130" width="5" height="10" fill="#FB9E36" />
<rect x="85" y="130" width="5" height="25" fill="#000000" />
<rect x="130" y="130" width="5" height="10" fill="#FB9E36" />
<rect x="135" y="130" width="5" height="10" fill="#EE932E" />
<rect x="15" y="140" width="5" height="5" fill="#EE932E" />
<rect x="50" y="140" width="5" height="10" fill="#FB9E36" />
<rect x="65" y="140" width="20" height="15" fill="#000000" />
<rect x="90" y="140" width="5" height="10" fill="#000000" />
<rect x="95" y="140" width="5" height="10" fill="#FB9E36" />
<rect x="130" y="140" width="5" height="5" fill="#EE932E" />
<rect x="20" y="145" width="10" height="5" fill="#EE932E" />
<rect x="30" y="145" width="15" height="5" fill="#FB9E36" />
<rect x="110" y="145" width="10" height="5" fill="#FB9E36" />
<rect x="120" y="145" width="10" height="5" fill="#EE932E" />
<rect x="30" y="150" width="10" height="5" fill="#EE932E" />
<rect x="40" y="150" width="5" height="5" fill="#FB9E36" />
<rect x="50" y="150" width="5" height="10" fill="#EE932E" />
<rect x="95" y="150" width="5" height="5" fill="#EE932E" />
<rect x="110" y="150" width="10" height="5" fill="#EE932E" />
<rect x="40" y="155" width="10" height="5" fill="#EE932E" />
<rect x="95" y="155" width="5" height="5" fill="#FB8936" />
<rect x="100" y="155" width="10" height="5" fill="#EE932E" />
</svg>